<svg xmlns="http://www.w3.org/2000/svg" width="800" height="800" fill="none" viewBox="0 0 24 24">
  <path d="M22.08 0H2.055A1.965 1.965 0 0 0 0 1.875v20.07a2.115 2.115 0 0 0 2.055 2.056H22.08A2.01 2.01 0 0 0 24 21.946V1.876A1.844 1.844 0 0 0 22.08 0M7.5 20.01H4.005V9.316H7.5ZM5.835 7.696a1.77 1.77 0 0 1-1.83-1.845 1.77 1.77 0 0 1 1.86-1.845 1.77 1.77 0 0 1 1.83 1.845 1.77 1.77 0 0 1-1.86 1.845M20.01 20.011H16.5v-5.85c0-1.396-.495-2.356-1.74-2.356a1.87 1.87 0 0 0-1.755 1.26 2.15 2.15 0 0 0-.12.855v6.09h-3.45V9.316h3.45v1.5A3.48 3.48 0 0 1 16.035 9c2.265 0 3.975 1.5 3.975 4.695z" style="fill:#000;stroke-width:1.50004017"/>
</svg>
